<svg preserveAspectRatio="none" width="56" height="56" viewBox="0 0 56 56" fill="none" xmlns="http://www.w3.org/2000/svg">
<path d="M28 14L25.4975 16.4377L35.2625 26.25H14V29.75H35.2625L25.4975 39.5027L28 42L42 28L28 14Z" fill="#39B6CC"/>
<path d="M28 52.5C23.1544 52.5 18.4175 51.0631 14.3885 48.371C10.3595 45.6789 7.21931 41.8525 5.36496 37.3757C3.51062 32.899 3.02543 27.9728 3.97077 23.2203C4.91611 18.4678 7.24951 14.1023 10.6759 10.6759C14.1023 7.2495 18.4678 4.9161 23.2203 3.97076C27.9728 3.02542 32.899 3.5106 37.3758 5.36495C41.8525 7.2193 45.6789 10.3595 48.371 14.3885C51.0631 18.4175 52.5 23.1544 52.5 28C52.4926 34.4955 49.909 40.7229 45.3159 45.3159C40.7229 49.909 34.4955 52.4926 28 52.5ZM28 7C23.8466 7 19.7865 8.23163 16.333 10.5391C12.8796 12.8466 10.188 16.1264 8.59854 19.9636C7.0091 23.8009 6.59323 28.0233 7.40352 32.0969C8.21381 36.1705 10.2139 39.9123 13.1508 42.8492C16.0877 45.7861 19.8295 47.7862 23.9031 48.5965C27.9767 49.4068 32.1991 48.9909 36.0364 47.4015C39.8736 45.812 43.1534 43.1204 45.4609 39.667C47.7684 36.2135 49 32.1534 49 28C48.9935 22.4324 46.779 17.0948 42.8421 13.1579C38.9052 9.22106 33.5676 7.00648 28 7Z" fill="#39B6CC"/>
</svg>
