<svg preserveAspectRatio="none" width="39" height="40" viewBox="0 0 39 40" fill="none" xmlns="http://www.w3.org/2000/svg">
<path d="M32.0319 0.0669195C32.8255 0.462309 33.279 0.873888 33.6369 1.69587C33.9017 2.71337 33.7874 3.50036 33.2802 4.41078C32.8458 4.87933 32.3557 5.24579 31.8424 5.62117C31.6999 5.72943 31.5574 5.83769 31.4105 5.94922C30.9664 6.28485 30.5189 6.61531 30.0703 6.94469C29.935 7.04493 29.7997 7.14517 29.6602 7.24844C29.0035 7.73483 28.3442 8.21739 27.6824 8.69666C27.0992 9.1203 26.5228 9.55197 25.9493 9.98907C25.7981 10.104 25.6468 10.2189 25.4909 10.3373C25.201 10.558 24.9118 10.7797 24.6234 11.0026C24.0202 11.4605 23.4646 11.8604 22.761 12.1412C22.5838 12.2182 22.4066 12.2952 22.224 12.3745C22.0056 13.0394 22.112 13.163 22.38 13.7885C23.2933 16.2251 22.9439 18.5219 22.0457 20.8812C22.7706 21.2502 23.4998 21.6094 24.2301 21.9672C24.4334 22.0708 24.6366 22.1744 24.8459 22.2811C26.035 22.8571 26.943 23.175 28.266 23.0383C29.7124 23.0769 31.0976 23.7771 32.4053 24.3555C32.6496 24.4621 32.6496 24.4621 32.8988 24.571C33.4127 24.7956 33.926 25.0217 34.4393 25.2477C34.789 25.4008 35.1387 25.5537 35.4884 25.7066C36.1242 25.9849 36.76 26.2634 37.3953 26.543C37.5222 26.5989 37.6491 26.6547 37.7798 26.7122C38.0063 26.8141 38.23 26.9226 38.4517 27.035C38.3588 28.3089 38.1505 29.5128 37.8456 30.7511C37.8036 30.9244 37.7616 31.0978 37.7183 31.2763C37.6299 31.6391 37.5409 32.0017 37.4512 32.3641C37.3141 32.9203 37.1806 33.4773 37.0473 34.0344C36.9607 34.388 36.8739 34.7415 36.7868 35.0949C36.7472 35.2616 36.7076 35.4282 36.6669 35.5999C36.6282 35.7535 36.5895 35.9071 36.5497 36.0653C36.5166 36.2005 36.4835 36.3357 36.4494 36.475C36.3117 36.8087 36.3117 36.8087 35.7768 37.1707C35.3177 37.0866 34.8998 36.9834 34.4546 36.8497C34.3246 36.813 34.1946 36.7764 34.0607 36.7386C33.6438 36.6209 33.2279 36.5002 32.8121 36.3788C32.4001 36.2588 31.9879 36.1396 31.575 36.023C31.3182 35.9504 31.0619 35.876 30.8062 35.7994C29.0719 35.3093 27.8538 35.5521 26.2266 36.294C25.8669 36.4507 25.5072 36.6075 25.1476 36.7642C24.588 37.0122 24.029 37.2614 23.4703 37.5114C22.9265 37.7534 22.381 37.991 21.8353 38.2284C21.671 38.3036 21.5067 38.3788 21.3375 38.4563C19.9897 39.0403 18.6224 39.2838 17.2169 38.7388C16.9672 38.6196 16.7193 38.4962 16.473 38.3698C16.1642 38.2205 15.8554 38.0713 15.5465 37.9222C15.3678 37.8345 15.1892 37.7467 15.0051 37.6563C14.2609 37.295 13.5125 36.9441 12.7629 36.5945C12.6182 36.527 12.4735 36.4595 12.3244 36.3899C12.0244 36.25 11.7244 36.1101 11.4244 35.9702C10.6647 35.6155 9.90585 35.259 9.14696 34.9026C8.10029 34.4112 7.05322 33.9208 6.00535 33.432C5.79585 33.3342 5.58635 33.2364 5.3705 33.1357C4.99323 32.9596 4.61586 32.7837 4.23837 32.6082C3.42325 32.2274 2.61125 31.8408 1.80493 31.4411C1.66389 31.3712 1.52285 31.3013 1.37753 31.2294C0.741526 30.8684 0.475843 30.5842 0.111532 29.9309C-0.0559331 29.1351 -0.0739406 28.4469 0.33444 27.7293C0.772479 27.1891 1.05337 26.8974 1.71647 26.673C2.02505 26.6923 2.3334 26.7153 2.64153 26.7409C3.40285 26.7439 3.80633 26.6792 4.38022 26.164C4.62393 25.9136 4.86511 25.6606 5.10467 25.4061C5.46444 25.0619 5.83102 24.7254 6.19691 24.388C6.32826 24.2645 6.32826 24.2645 6.46227 24.1386C7.06364 23.5738 7.68188 23.038 8.31454 22.5102C8.2327 22.3938 8.15087 22.2773 8.06655 22.1574C6.70409 20.1209 6.08548 18.1033 6.35295 15.6324C6.79184 13.4402 7.78863 11.4022 9.56282 10.0216C10.9025 9.19896 12.2642 8.54052 13.8426 8.39264C13.9716 8.38005 14.1006 8.36745 14.2334 8.35447C16.2871 8.25752 18.2239 9.06459 19.9057 10.2026C20.3243 9.92424 20.5893 9.7137 20.8352 9.26606C21.2629 8.57991 21.7984 8.05246 22.3654 7.48343C22.4839 7.36318 22.6025 7.24293 22.7247 7.11903C22.9753 6.86518 23.2264 6.61176 23.4779 6.35876C23.8589 5.97535 24.2384 5.59053 24.6178 5.20545C24.8626 4.95792 25.1074 4.71046 25.3523 4.46309C25.5202 4.29307 25.5202 4.29307 25.6914 4.1196C26.3729 3.43514 27.0747 2.78371 27.8018 2.1494C28.2994 1.70761 28.7487 1.22224 29.2038 0.736456C30.0487 -0.0472262 30.9306 -0.0761139 32.0319 0.0669195Z" fill="#E7F4F5"/>
<path d="M32.9076 25.4348C33.4624 25.6797 34.0202 25.9161 34.5788 26.1518C34.9326 26.305 35.2861 26.4587 35.6395 26.6129C35.8063 26.6834 35.9732 26.7539 36.1451 26.8265C36.3742 26.9297 36.3742 26.9297 36.6079 27.0349C36.7427 27.0939 36.8775 27.153 37.0163 27.2138C37.3259 27.453 37.3259 27.453 37.4697 27.8793C37.5045 28.368 37.4636 28.718 37.3444 29.1909C37.2856 29.4298 37.2856 29.4298 37.2257 29.6735C37.182 29.843 37.1383 30.0124 37.0932 30.187C37.0277 30.4501 37.0277 30.4501 36.9609 30.7185C36.8213 31.2774 36.6791 31.8356 36.5369 32.3938C36.4417 32.7731 36.3466 33.1524 36.2517 33.5318C36.0191 34.4607 35.7842 35.389 35.5478 36.3169C33.8963 35.9039 32.2524 35.4821 30.6259 34.9751C30.4989 34.9375 30.3719 34.9 30.2411 34.8613C30.1326 34.828 30.024 34.7947 29.9122 34.7604C28.5565 34.5239 27.6298 34.7946 26.3959 35.3425C26.2394 35.4095 26.083 35.4765 25.9218 35.5455C25.425 35.7588 24.9296 35.9755 24.4343 36.1926C23.9387 36.4069 23.4428 36.6204 22.9469 36.8339C22.6394 36.9665 22.3322 37.0998 22.0253 37.2338C18.9556 38.5708 18.9556 38.5708 17.3842 37.983C16.9707 37.7948 16.5689 37.5904 16.1659 37.3797C15.8363 37.2138 15.5063 37.0485 15.1761 36.8837C14.995 36.793 14.8139 36.7024 14.6273 36.609C13.6174 36.1134 12.5948 35.6463 11.5727 35.1773C9.44875 34.2025 7.33066 33.2154 5.2192 32.2129C5.10775 32.16 4.99629 32.1072 4.88146 32.0528C1.18677 30.3003 1.18678 30.3003 0.873844 29.6238C0.784936 29.0924 0.784936 29.0924 0.873844 28.5384C1.2792 27.9926 1.57632 27.6968 2.21805 27.4806C3.09986 27.4409 3.78089 27.7384 4.59407 28.0636C4.76143 28.1291 4.92879 28.1946 5.10122 28.2621C5.45384 28.4013 5.80593 28.5418 6.1575 28.6837C6.69599 28.8997 7.23709 29.1075 7.77876 29.315C8.12138 29.4514 8.46382 29.5882 8.80606 29.7256C9.04916 29.8175 9.04916 29.8175 9.29717 29.9113C9.72537 30.0889 10.0992 30.2552 10.4759 30.5283C10.7324 31.1786 10.7324 31.1786 10.8315 31.7945C11.328 32.4322 11.6001 32.6551 12.3916 32.7716C13.004 32.7954 13.6085 32.7868 14.2211 32.7669C14.4431 32.7623 14.6651 32.7578 14.8938 32.7531C15.3441 32.743 15.7943 32.7309 16.2445 32.7166C16.8003 32.7012 17.3541 32.6974 17.9101 32.6997C20.0382 32.6861 21.8088 32.225 23.777 31.4124C24.377 31.1658 24.9836 30.9385 25.5901 30.7092C25.5901 30.5898 25.5901 30.4704 25.5901 30.3474C24.5103 30.455 23.5707 30.7798 22.5562 31.1614C20.482 31.9381 18.5363 32.0725 16.3438 32.1563C16.159 32.1647 15.9743 32.173 15.7839 32.1816C15.2074 32.2057 14.6312 32.2215 14.0544 32.2355C13.8716 32.2439 13.6888 32.2523 13.5005 32.261C12.2517 32.2794 12.2517 32.2794 11.7566 31.9322C11.3071 31.4185 11.1882 31.1042 11.1649 30.4152C11.4078 29.6739 11.6134 29.5 12.254 29.0811C12.7277 28.9676 13.154 28.8907 13.6335 28.838C13.7657 28.8207 13.8979 28.8034 14.0342 28.7855C14.4555 28.7305 14.8772 28.6793 15.2991 28.6289C17.7937 28.3267 19.8513 27.8298 22.0783 26.5938C22.2933 26.4766 22.2933 26.4766 22.5128 26.3571C22.9465 26.1206 23.3793 25.8825 23.812 25.6441C24.1988 25.4322 24.5859 25.2207 24.9732 25.0097C25.2009 24.8855 25.4284 24.7608 25.6556 24.6356C28.2267 23.2278 30.4377 24.3407 32.9076 25.4348Z" fill="#39B6CC"/>
<path d="M22.759 14.8981C22.9947 17.1143 22.8314 18.8088 22.0457 20.8734C22.7706 21.2426 23.4998 21.6019 24.2301 21.9599C24.4334 22.0635 24.6366 22.1671 24.8459 22.2739C26.035 22.8502 26.943 23.1682 28.266 23.0314C29.7124 23.0701 31.0976 23.7705 32.4053 24.3491C32.5682 24.4203 32.731 24.4914 32.8988 24.5647C33.4127 24.7895 33.926 25.0156 34.4393 25.2418C34.789 25.3949 35.1387 25.5479 35.4884 25.7008C36.1242 25.9792 36.76 26.2579 37.3953 26.5377C37.5222 26.5935 37.6491 26.6494 37.7798 26.7069C38.0063 26.8089 38.23 26.9173 38.4517 27.0299C38.3588 28.3043 38.1505 29.5087 37.8456 30.7475C37.8036 30.9209 37.7616 31.0943 37.7183 31.273C37.6299 31.6359 37.5409 31.9986 37.4512 32.3612C37.3141 32.9176 37.1806 33.4749 37.0473 34.0322C36.9607 34.3859 36.8739 34.7396 36.7868 35.0932C36.7472 35.2599 36.7076 35.4267 36.6669 35.5984C36.6282 35.7521 36.5895 35.9057 36.5497 36.064C36.5166 36.1993 36.4835 36.3345 36.4494 36.4739C36.3117 36.8077 36.3117 36.8077 35.7768 37.1699C35.3177 37.0857 34.8998 36.9825 34.4546 36.8488C34.3246 36.8121 34.1946 36.7754 34.0607 36.7376C33.6438 36.6199 33.2279 36.4991 32.8121 36.3777C32.4001 36.2576 31.9879 36.1384 31.575 36.0217C31.3182 35.9491 31.0619 35.8746 30.8062 35.798C29.0719 35.3077 27.8538 35.5506 26.2266 36.2928C25.8669 36.4496 25.5072 36.6064 25.1476 36.7632C24.588 37.0113 24.029 37.2607 23.4703 37.5107C22.9265 37.7528 22.381 37.9905 21.8353 38.228C21.671 38.3033 21.5067 38.3785 21.3375 38.4561C19.9897 39.0403 18.6224 39.2838 17.2169 38.7387C16.9672 38.6194 16.7193 38.496 16.473 38.3695C16.1642 38.2201 15.8554 38.0709 15.5465 37.9217C15.3678 37.834 15.1892 37.7462 15.0051 37.6557C14.2609 37.2943 13.5125 36.9432 12.7629 36.5934C12.6182 36.5259 12.4735 36.4583 12.3244 36.3888C12.0244 36.2488 11.7244 36.1088 11.4244 35.9688C10.6647 35.614 9.90585 35.2573 9.14696 34.9008C8.10029 34.4092 7.05322 33.9185 6.00535 33.4296C5.79585 33.3318 5.58635 33.2339 5.3705 33.1331C4.99323 32.957 4.61586 32.781 4.23837 32.6054C3.42325 32.2244 2.61125 31.8376 1.80493 31.4378C1.66389 31.3679 1.52285 31.298 1.37753 31.226C0.741526 30.8649 0.475843 30.5805 0.111532 29.927C-0.0559331 29.1308 -0.0739406 28.4423 0.33444 27.7244C0.772479 27.184 1.05337 26.8922 1.71647 26.6677C2.02505 26.6869 2.3334 26.71 2.64153 26.7356C3.40285 26.7387 3.80633 26.6738 4.38022 26.1585C4.62393 25.9079 4.86511 25.6548 5.10467 25.4002C5.46444 25.0559 5.83102 24.7193 6.19691 24.3817C6.28448 24.2993 6.37205 24.217 6.46227 24.1321C7.06364 23.5671 7.68188 23.0311 8.31454 22.5031C8.2481 22.4111 8.18167 22.3191 8.11322 22.2244C7.41556 21.1936 7.41556 21.1936 7.45634 20.4207C7.50416 20.2714 7.55197 20.122 7.60123 19.9681C8.07003 20.4075 8.44049 20.8662 8.80493 21.394C9.83733 22.7995 11.2804 23.699 12.951 24.1327C15.3085 24.4487 17.2692 24.0867 19.2593 22.7294C20.4697 21.735 21.532 20.0194 21.7893 18.4516C21.8151 18.2947 21.8408 18.1379 21.8673 17.9763C22.0439 17.8568 22.2204 17.7373 22.4023 17.6141C22.4469 16.9652 22.4469 16.9652 22.4023 16.3466C22.3435 16.3466 22.2846 16.3466 22.224 16.3466C22.224 15.9284 22.224 15.5101 22.224 15.0791C22.5806 14.8981 22.5806 14.8981 22.759 14.8981ZM24.5901 25.1755C23.8458 25.589 23.0839 25.9674 22.3243 26.3508C22.1788 26.4254 22.0332 26.4999 21.8833 26.5767C21.4633 26.7911 21.0418 27.0021 20.619 27.2109C20.4848 27.2776 20.3505 27.3442 20.2121 27.4129C18.2688 28.3381 16.1883 28.4738 14.076 28.7182C13.7412 28.7613 13.7412 28.7613 13.3996 28.8052C13.1978 28.8295 12.9961 28.8537 12.7882 28.8787C12.1465 29.0453 11.8151 29.2756 11.3461 29.7459C11.1077 30.3536 11.1077 30.3536 11.1678 31.0134C11.4547 31.5277 11.5957 31.7752 12.0594 32.0999C12.7239 32.2422 13.3675 32.2102 14.0433 32.1791C14.2332 32.1743 14.4232 32.1694 14.6189 32.1645C15.1926 32.1482 15.7657 32.1243 16.3392 32.0999C16.6571 32.091 16.975 32.0825 17.2928 32.0744C19.656 31.9998 21.7455 31.5469 23.9398 30.648C24.5481 30.4019 24.9459 30.2891 25.6122 30.2891C25.6122 30.4087 25.6122 30.5282 25.6122 30.6513C25.0144 30.8861 24.4161 31.1196 23.8178 31.3529C23.6496 31.419 23.4815 31.4851 23.3082 31.5531C21.8499 32.1206 20.5442 32.5172 18.9807 32.5752C18.7434 32.5845 18.7434 32.5845 18.5014 32.594C17.959 32.6131 17.4167 32.6282 16.8742 32.6431C16.6614 32.6502 16.4487 32.6573 16.2295 32.6647C15.5565 32.6855 14.8837 32.6992 14.2104 32.711C13.996 32.7179 13.7816 32.7248 13.5607 32.7319C11.8676 32.7483 11.8676 32.7483 11.2228 32.2654C10.8111 31.7377 10.8111 31.7377 10.6858 31.1093C10.512 30.4268 10.512 30.4268 9.90206 30.1217C9.66826 30.0285 9.43237 29.9405 9.19502 29.857C9.06914 29.8082 8.94325 29.7595 8.81355 29.7093C8.411 29.5546 8.00635 29.4069 7.60123 29.2593C7.33427 29.1583 7.06748 29.0568 6.80085 28.9548C6.28831 28.7593 5.77486 28.5667 5.26048 28.3763C4.54102 28.1084 3.83265 27.8162 3.12762 27.5114C2.58599 27.3219 2.24434 27.3612 1.71647 27.5731C1.13003 28.0261 0.861569 28.2795 0.724528 29.0216C0.852025 29.7121 1.05785 29.9633 1.53814 30.4702C1.99648 30.7604 2.47899 30.98 2.97241 31.2016C3.1138 31.2673 3.25519 31.333 3.40086 31.4007C3.86006 31.6134 4.3207 31.8227 4.78145 32.032C5.0982 32.1779 5.41487 32.324 5.73146 32.4703C7.65695 33.3579 9.58809 34.2342 11.5305 35.083C12.7403 35.614 13.9149 36.204 15.0909 36.8077C15.6339 37.0828 16.1797 37.35 16.7293 37.6112C16.8593 37.6769 16.9893 37.7426 17.1232 37.8103C17.2532 37.8714 17.3832 37.9324 17.5171 37.9953C17.6296 38.05 17.742 38.1047 17.8579 38.1611C19.1907 38.4475 20.4239 37.9259 21.6305 37.3969C21.7884 37.3297 21.9463 37.2625 22.109 37.1933C22.6088 36.98 23.1074 36.7638 23.606 36.5474C23.9433 36.4028 24.2807 36.2584 24.6181 36.1142C25.236 35.85 25.8534 35.5845 26.4702 35.3178C26.6022 35.2617 26.7342 35.2055 26.8702 35.1476C27.1418 35.0297 27.4096 34.9026 27.6756 34.772C28.7825 34.4215 29.8301 34.6603 30.9104 34.9914C31.0961 35.0456 31.0961 35.0456 31.2856 35.101C31.6761 35.2154 32.0658 35.3324 32.4554 35.4497C32.8491 35.5664 33.2429 35.6826 33.6368 35.7984C33.8807 35.8703 34.1244 35.9428 34.3679 36.016C34.973 36.2024 34.973 36.2024 35.5984 36.2645C35.8837 35.1471 36.1661 34.029 36.4463 32.9103C36.542 32.5299 36.6384 32.1497 36.7354 31.7696C36.8748 31.223 37.0118 30.6759 37.1483 30.1286C37.1922 29.959 37.236 29.7894 37.2812 29.6147C37.3401 29.3755 37.3401 29.3755 37.4002 29.1315C37.4531 28.9222 37.4531 28.9222 37.507 28.7087C37.5705 28.2165 37.5301 27.8648 37.3817 27.392C36.9635 27.137 36.6014 26.9587 36.1522 26.7809C35.9643 26.7016 35.9643 26.7016 35.7726 26.6208C35.3703 26.452 34.9662 26.2882 34.5619 26.1245C34.2972 26.0145 34.0326 25.9041 33.7682 25.7935C33.2523 25.5781 32.7356 25.3652 32.218 25.1542C31.4139 24.8254 30.6191 24.4752 29.8262 24.1195C27.8487 23.412 26.2944 24.2099 24.5901 25.1755Z" fill="#E7F4F5"/>
<path d="M3.55586 27.629C3.97559 27.7866 4.39207 27.9513 4.80822 28.1186C4.96033 28.1789 5.11243 28.2391 5.26915 28.3012C5.75252 28.4929 6.23532 28.6862 6.71813 28.8794C7.04547 29.0094 7.37285 29.1393 7.70027 29.2691C10.079 30.2142 10.079 30.2142 10.5101 30.4353C10.5542 30.6316 10.5984 30.8279 10.6439 31.0302C10.8518 31.6699 11.0203 32.0478 11.5459 32.4609C12.4429 32.8522 13.4742 32.8 14.4358 32.8148C14.4358 32.8753 14.4358 32.9357 14.4358 32.9979C13.847 33.0583 13.2581 33.1187 12.6514 33.1809C13.3047 33.4808 13.9582 33.7802 14.6118 34.0792C14.9413 34.23 15.2706 34.3811 15.5999 34.5323C17.9595 35.7942 17.9595 35.7942 20.5029 36.1096C20.9895 35.9129 21.4566 35.6898 21.927 35.4554C22.4816 35.1868 23.0408 34.9588 23.6146 34.7368C24.3708 34.4434 25.1214 34.1413 25.8674 33.8216C26.0413 33.7473 26.2152 33.6729 26.3944 33.5964C26.7622 33.4358 27.1283 33.2711 27.4929 33.103C27.6779 33.0192 27.8628 32.9355 28.0534 32.8492C28.3008 32.7341 28.3008 32.7341 28.5532 32.6168C29.7712 32.2195 30.8851 32.5496 32.0795 32.872C32.2306 32.9111 32.3818 32.9501 32.5375 32.9904C33.5385 33.2538 34.5159 33.5666 35.4923 33.9131C35.6689 33.9735 35.8456 34.0339 36.0276 34.0962C36.0023 34.3594 35.9761 34.6225 35.9495 34.8855C35.9278 35.1053 35.9278 35.1053 35.9056 35.3296C35.8492 35.7436 35.8492 35.7436 35.6707 36.2927C35.2616 36.1904 34.8527 36.0874 34.4439 35.9838C34.317 35.9518 34.1902 35.9197 34.0595 35.8867C33.3559 35.7068 32.6571 35.5165 31.961 35.3081C31.8207 35.2664 31.6803 35.2247 31.5357 35.1817C31.2656 35.1007 30.9958 35.0181 30.7266 34.9337C30.6008 34.8961 30.4749 34.8585 30.3453 34.8198C30.2363 34.7861 30.1274 34.7524 30.0152 34.7177C28.6547 34.4784 27.7247 34.7523 26.4864 35.3067C26.3294 35.3744 26.1724 35.4422 26.0107 35.512C25.5121 35.7279 25.015 35.9472 24.5179 36.1668C24.0206 36.3837 23.5229 36.5998 23.0252 36.8158C22.7167 36.95 22.4084 37.0848 22.1004 37.2204C19.0198 38.5733 19.0198 38.5733 17.4429 37.9785C17.0279 37.7881 16.6246 37.5813 16.2203 37.3681C15.8895 37.2002 15.5584 37.0329 15.227 36.8661C14.9544 36.7285 14.9544 36.7285 14.6762 36.5882C13.6627 36.0868 12.6365 35.6141 11.6108 35.1395C9.47933 34.1532 7.35374 33.1543 5.23481 32.1399C5.12296 32.0864 5.01111 32.0329 4.89588 31.9779C1.18812 30.2046 1.18812 30.2046 0.87408 29.52C0.784858 28.9824 0.784858 28.9824 0.87408 28.4218C1.76201 27.3432 2.25163 27.188 3.55586 27.629Z" fill="#39B6CC"/>
<path d="M21.3874 21.5765C22.3412 21.8754 23.235 22.2777 24.1427 22.6953C24.2918 22.7633 24.4408 22.8314 24.5943 22.9015C24.9592 23.0682 25.3239 23.2354 25.6884 23.4031C25.6884 23.5839 25.6884 23.7647 25.6884 23.951C24.8118 24.4131 23.935 24.8747 23.0578 25.3357C22.7596 25.4925 22.4615 25.6495 22.1635 25.8066C21.7344 26.0328 21.3051 26.2584 20.8756 26.484C20.7431 26.554 20.6105 26.6241 20.4739 26.6962C19.3136 27.3045 18.3221 27.6637 17.0135 27.814C16.7183 27.851 16.4231 27.8881 16.1279 27.9253C15.6656 27.9822 15.2032 28.0382 14.7405 28.0922C14.2919 28.1452 13.8438 28.202 13.3957 28.2592C13.1893 28.2818 13.1893 28.2818 12.9787 28.3048C11.7866 28.4614 11.279 28.9568 10.4555 29.7961C8.44474 29.0125 6.43399 28.2289 4.36231 27.4215C4.65801 27.0599 4.95371 26.6982 5.25837 26.3256C5.37664 26.3256 5.49492 26.3256 5.61679 26.3256C5.61679 26.205 5.61679 26.0845 5.61679 25.9603C5.91027 25.6947 6.21488 25.4418 6.52404 25.1954C7.35222 24.5214 8.11626 23.8235 8.84259 23.0377C9.47462 23.2756 10.0054 23.5631 10.5675 23.9396C12.4671 25.1128 14.4361 25.3188 16.5823 24.8187C18.5511 24.262 20.1437 23.2403 21.3874 21.5765Z" fill="#D8AA7A"/>
<path d="M17.1401 11.5488C18.7284 12.488 19.7691 13.6276 20.2718 15.4563C20.4596 17.0515 20.3854 18.44 19.5534 19.8309C19.4643 19.7626 19.3752 19.6942 19.2833 19.6237C17.3379 18.1363 16.1219 17.4649 13.6269 17.6436C12.2825 17.9385 11.5556 18.5521 10.7534 19.6487C10.517 19.8948 10.2791 20.1396 10.035 20.3778C9.10977 19.0301 8.54256 17.6837 8.77785 16.0031C9.2701 14.0643 10.1256 12.7457 11.7867 11.6698C13.4374 10.7549 15.444 10.7337 17.1401 11.5488Z" fill="#E6F8FC"/>
<path d="M17.9189 11.1337C19.4833 12.3003 20.4921 13.5593 20.9456 15.4845C21.1381 17.7199 20.8824 19.5333 19.4795 21.3188C18.1294 22.733 16.4758 23.3561 14.5729 23.4601C12.8648 23.4623 11.2244 22.8072 9.9514 21.6367C8.5648 20.1178 8.0556 18.3062 8.07776 16.291C8.20809 14.6172 8.93122 13.2237 10.0849 12.0401C12.252 10.2113 15.3828 9.62639 17.9189 11.1337ZM11.3312 12.0401C11.1595 12.1519 11.1595 12.1519 10.9842 12.266C9.84545 13.1136 9.09471 14.6279 8.83862 16.0283C8.75344 17.7629 9.10911 18.9532 10.0849 20.3791C10.565 19.9042 10.9737 19.4747 11.3646 18.9175C12.1291 17.9906 13.1555 17.7114 14.3051 17.5904C16.4941 17.5238 17.4718 18.0628 19.0428 19.5435C19.1419 19.6397 19.2411 19.736 19.3432 19.8352C20.0615 19.2369 20.2005 18.4877 20.3058 17.5791C20.3558 15.5812 19.915 14.1018 18.5977 12.5953C17.1907 11.3247 15.6351 10.945 13.7905 11.0459C12.8206 11.1713 12.1281 11.4756 11.3312 12.0401Z" fill="#158BA0"/>
<path d="M26.3255 22.9996C26.7043 22.9846 27.0833 22.9742 27.4623 22.9655C27.6733 22.9592 27.8844 22.9529 28.1018 22.9464C29.6045 22.9944 31.048 23.7039 32.4053 24.3063C32.5682 24.3776 32.731 24.449 32.8988 24.5225C33.4127 24.7479 33.926 24.9747 34.4393 25.2015C34.789 25.355 35.1387 25.5085 35.4884 25.6619C36.1242 25.9411 36.76 26.2206 37.3953 26.5011C37.5222 26.5572 37.6491 26.6132 37.7798 26.6709C38.0063 26.7732 38.23 26.8819 38.4517 26.9948C38.3588 28.2729 38.1505 29.4809 37.8456 30.7232C37.8036 30.8972 37.7616 31.0711 37.7183 31.2503C37.6299 31.6143 37.5409 31.978 37.4512 32.3417C37.3141 32.8997 37.1806 33.4586 37.0473 34.0176C36.9607 34.3723 36.8739 34.727 36.7868 35.0816C36.7472 35.2488 36.7076 35.4161 36.6669 35.5883C36.6282 35.7424 36.5895 35.8965 36.5497 36.0553C36.5166 36.1909 36.4835 36.3266 36.4494 36.4664C36.3117 36.8012 36.3117 36.8012 35.7768 37.1644C35.3177 37.08 34.8998 36.9765 34.4546 36.8423C34.3246 36.8055 34.1946 36.7687 34.0607 36.7308C33.6438 36.6127 33.2279 36.4916 32.8121 36.3699C32.4001 36.2495 31.9879 36.1298 31.575 36.0128C31.3182 35.94 31.0619 35.8654 30.8062 35.7885C29.0719 35.2967 27.8538 35.5404 26.2266 36.2847C25.8669 36.442 25.5072 36.5992 25.1476 36.7565C24.588 37.0053 24.029 37.2554 23.4703 37.5062C22.9265 37.749 22.381 37.9874 21.8353 38.2256C21.671 38.3011 21.5067 38.3765 21.3375 38.4543C19.9897 39.0402 18.6224 39.2845 17.2169 38.7377C16.9672 38.6181 16.7193 38.4943 16.473 38.3675C16.1642 38.2176 15.8554 38.068 15.5465 37.9184C15.3678 37.8304 15.1892 37.7423 15.0051 37.6516C14.2609 37.2891 13.5125 36.937 12.7629 36.5862C12.6182 36.5185 12.4735 36.4508 12.3244 36.381C12.0244 36.2406 11.7244 36.1002 11.4244 35.9598C10.6647 35.6039 9.90585 35.2463 9.14696 34.8887C8.10029 34.3957 7.05322 33.9036 6.00535 33.4132C5.79585 33.3151 5.58635 33.2169 5.3705 33.1158C4.99323 32.9392 4.61586 32.7627 4.23837 32.5866C3.42325 32.2045 2.61125 31.8166 1.80493 31.4156C1.66389 31.3455 1.52285 31.2754 1.37753 31.2031C0.741526 30.841 0.475843 30.5558 0.111532 29.9004C-0.0559331 29.1019 -0.0739406 28.4114 0.33444 27.6914C0.772479 27.1494 1.05337 26.8567 1.71647 26.6316C1.96513 26.6195 2.2143 26.6161 2.46321 26.6202C2.79974 26.6259 2.79974 26.6259 3.14308 26.6316C3.04009 26.6765 2.93711 26.7215 2.83101 26.7678C2.3703 27.0284 2.07707 27.331 1.71647 27.7212C1.58406 27.8335 1.45165 27.9459 1.31523 28.0617C0.962041 28.4356 0.962041 28.4356 0.902854 28.981C1.0379 29.7298 1.33514 29.9485 1.89479 30.4452C2.46649 30.7769 2.46649 30.7769 3.10616 31.0531C3.22296 31.1064 3.33976 31.1597 3.4601 31.2146C3.84031 31.3875 4.22169 31.5576 4.60312 31.7277C4.86864 31.848 5.13405 31.9685 5.39937 32.0892C5.80288 32.2727 6.20646 32.4561 6.6104 32.6386C7.83472 33.192 9.05041 33.763 10.265 34.3382C11.6808 35.0063 13.0989 35.6679 14.5294 36.3027C15.1487 36.5788 15.7581 36.8651 16.3601 37.1785C16.4788 37.2391 16.5975 37.2997 16.7198 37.3621C17.0386 37.526 17.3553 37.6944 17.6718 37.8631C19.0644 38.3264 20.3399 37.778 21.6305 37.2105C21.7884 37.1431 21.9463 37.0757 22.109 37.0062C22.6088 36.7923 23.1074 36.5755 23.606 36.3585C23.9433 36.2135 24.2807 36.0687 24.6181 35.924C25.236 35.659 25.8534 35.3928 26.4702 35.1253C26.6682 35.0408 26.6682 35.0408 26.8702 34.9546C27.1418 34.8363 27.4096 34.7088 27.6756 34.5779C28.7796 34.2273 29.8311 34.4651 30.9104 34.7915C31.0342 34.8274 31.158 34.8632 31.2856 34.9001C31.676 35.0137 32.0657 35.13 32.4554 35.2462C32.7208 35.3236 32.9862 35.4008 33.2516 35.4778C35.1704 36.0384 35.1704 36.0384 35.5984 36.2564C35.6157 36.1338 35.6329 36.0113 35.6506 35.885C35.8969 34.2542 36.2842 32.6757 36.6907 31.0808C36.8222 30.5646 36.9525 30.0481 37.0822 29.5315C37.1397 29.3057 37.1972 29.0799 37.2564 28.8473C37.4072 28.2469 37.4072 28.2469 37.3817 27.5396C36.5828 27.194 35.7839 26.8486 34.985 26.5032C34.7142 26.3862 34.4434 26.269 34.1726 26.1519C34.042 26.0954 33.9114 26.0389 33.7769 25.9807C33.6471 25.9246 33.5174 25.8684 33.3837 25.8106C33.1234 25.6982 32.8629 25.5862 32.6023 25.4745C32.0256 25.2273 31.4521 24.9765 30.882 24.7136C29.815 24.2287 28.9665 23.9571 27.7967 24.0324C27.6702 24.0365 27.5438 24.0406 27.4136 24.0449C27.1101 24.0553 26.8069 24.0716 26.5038 24.0892C26.445 23.7296 26.3861 23.3701 26.3255 22.9996Z" fill="#E7F4F5"/>
<path d="M18.5967 10.3492C20.3496 11.6477 21.6883 13.3231 22.1079 15.5061C22.2587 18.1535 21.7577 19.7622 20.353 21.9846C18.7233 23.6254 16.9448 24.4498 14.6608 24.4877C12.4155 24.4703 10.6258 23.6802 9.02622 22.0922C7.41067 20.3119 7.05883 18.2758 7.11381 15.9379C7.2126 13.9987 8.3073 12.3177 9.68501 10.9962C12.2015 8.98856 15.8281 8.62348 18.5967 10.3492ZM11.3084 11.1569C11.1704 11.2471 11.0323 11.3373 10.8901 11.4302C9.43213 12.4735 8.4069 13.9006 8.06861 15.6873C7.84318 17.6241 8.22376 19.291 9.31308 20.9115C10.4031 22.2444 11.6909 23.1035 13.3896 23.4167C15.6059 23.6307 17.1687 23.1836 18.9644 21.8799C19.4392 21.4587 19.7377 21.0519 20.0718 20.5122C20.1764 20.3464 20.2811 20.1805 20.3889 20.0096C21.2352 18.4428 21.2412 16.6629 20.9232 14.9377C20.3888 13.2154 19.1466 11.8878 17.6292 10.9644C15.7389 10.1216 13.078 9.96917 11.3084 11.1569Z" fill="#46A0C0"/>
<path d="M32.1401 0.773731C32.6929 1.08959 32.7685 1.29744 33.0745 1.90358C33.1769 2.53642 33.1089 2.99919 32.8876 3.59835C32.5945 3.92716 32.5945 3.92716 32.2277 4.23389C32.0928 4.34699 31.9579 4.4601 31.8188 4.57662C31.1394 5.11852 30.4475 5.63991 29.7459 6.15228C29.4342 6.38176 29.1225 6.61126 28.8108 6.84078C28.6518 6.95754 28.4928 7.0743 28.329 7.19459C27.5259 7.78555 26.7266 8.38153 25.9268 8.9769C24.9513 9.70301 23.9723 10.423 22.9836 11.1307C22.7678 10.9603 22.554 10.7871 22.3413 10.6128C22.1624 10.4686 22.1624 10.4686 21.9799 10.3215C21.6255 9.94813 21.4984 9.76649 21.4887 9.24759C21.7843 8.8445 21.7843 8.8445 22.2011 8.44728C22.3372 8.31426 22.4733 8.18124 22.6135 8.04419C22.9836 7.74113 22.8902 7.55814 23.2639 7.55814C23.3063 7.4494 23.8246 6.99322 23.4858 7.41159C23.918 6.84078 24.1781 6.61158 24.6654 6.23466C24.9797 5.92364 25.2907 5.60937 25.5998 5.29312C25.8446 5.04489 25.8446 5.04489 26.0944 4.79164C26.2672 4.61632 26.44 4.441 26.6181 4.26037C26.9073 3.96751 27.1966 3.67473 27.486 3.382C27.6857 3.17982 27.8852 2.97747 28.0846 2.77496C28.3739 2.48112 28.6638 2.18788 28.9539 1.89475C29.1261 1.72028 29.2982 1.54581 29.4756 1.36606C30.2618 0.613612 31.0945 0.605277 32.1401 0.773731Z" fill="#43A4C4"/>
<path d="M3.55596 27.6267C3.9757 27.7829 4.3922 27.946 4.80836 28.1117C4.96048 28.1714 5.11259 28.231 5.26931 28.2925C5.7527 28.4824 6.23551 28.6738 6.71834 28.8651C7.0457 28.9939 7.37309 29.1225 7.70052 29.2511C10.0793 30.1871 10.0793 30.1871 10.5104 30.4061C10.6304 30.8287 10.7493 31.2518 10.8673 31.675C11.1921 32.335 11.5088 32.7208 12.1165 33.1253C12.0281 33.3048 12.0281 33.3048 11.938 33.4879C11.8239 33.5141 11.7098 33.5402 11.5923 33.5672C11.156 33.6441 11.156 33.6441 10.8673 34.213C9.89185 34.3686 9.16779 33.986 8.31046 33.5707C8.16965 33.5045 8.02885 33.4382 7.88377 33.37C7.4349 33.1581 6.98742 32.9435 6.53989 32.7288C6.24186 32.5878 5.94375 32.447 5.64555 32.3063C4.94602 31.9757 4.24849 31.641 3.55202 31.3038C3.23753 31.1522 2.92184 31.0032 2.60596 30.8546C2.44758 30.7783 2.2892 30.702 2.12603 30.6235C1.9968 30.5622 1.86758 30.5009 1.73444 30.4377C1.33646 30.177 1.12446 29.9062 0.874082 29.4996C0.784857 28.9671 0.784857 28.9671 0.874082 28.4119C1.76205 27.3437 2.25168 27.19 3.55596 27.6267Z" fill="#39B6CC"/>
<path d="M32.0277 0.0668011C32.819 0.461491 33.2713 0.872342 33.6282 1.69287C33.8922 2.70857 33.7783 3.49417 33.2725 4.40297C32.8393 4.8707 32.3506 5.23651 31.8388 5.61123C31.697 5.71903 31.5553 5.82684 31.4092 5.93791C30.966 6.27327 30.5195 6.60341 30.0717 6.93241C29.9339 7.03439 29.7961 7.13637 29.6541 7.24144C29.1211 7.63571 28.5879 8.02941 28.0499 8.41648C27.3824 8.89739 26.7324 9.38873 26.0998 9.91635C24.0556 11.6053 24.2001 11.6956 23.1365 11.6299C22.6228 11.5221 22.2934 11.3209 21.9417 10.9213C21.683 10.495 21.4256 10.497 21.3582 10.0039C21.1822 10.0933 21.36 9.82229 21.1804 9.91353C21.0179 9.54363 21.0179 9.45329 21.0026 8.91982C21.3307 8.42141 21.7554 8.0251 22.18 7.61135C22.3031 7.4873 22.4263 7.36325 22.5532 7.23544C22.949 6.83823 23.3483 6.44499 23.7477 6.05162C24.0109 5.78815 24.2738 5.52443 24.5365 5.26047C25.6046 4.19186 26.6752 3.13811 27.8117 2.14421C28.3067 1.70325 28.7543 1.21941 29.2075 0.735153C30.0501 -0.0471426 30.9295 -0.0759793 32.0277 0.0668011ZM29.5819 1.50866C29.4601 1.62303 29.3383 1.7374 29.2128 1.85523C28.5344 2.52264 27.8663 3.19946 27.2042 3.88354C26.3518 4.76407 25.5063 5.6156 24.5591 6.39039C24.0587 6.85327 24.0587 6.85327 23.6699 7.29376C23.6699 7.413 23.7477 7.0828 23.7477 7.20565C23.846 7.16726 23.6524 7.24292 23.7477 7.20565C23.1473 7.55887 22.371 8.5914 21.8917 9.1005C22.0711 9.73865 22.2948 10.0811 22.7961 10.4873C23.0526 10.6952 23.0526 10.6952 23.3143 10.9072C23.399 10.8439 23.4836 10.7805 23.5708 10.7152C23.8286 10.5222 24.0863 10.3293 24.344 10.1363C24.6466 9.90982 24.9491 9.6833 25.2517 9.45677C26.0324 8.87216 26.8133 8.28774 27.5946 7.7038C28.4209 7.08613 29.2466 6.46766 30.0717 5.84837C30.2429 5.71989 30.2429 5.71989 30.4177 5.58882C30.7176 5.36346 31.0171 5.13745 31.3164 4.91112C31.4778 4.78931 31.6392 4.66751 31.8054 4.54201C32.6243 3.88781 32.6243 3.88781 32.9169 2.90112C32.9653 2.2311 32.9104 2.04131 32.5945 1.41056C32.1579 0.971887 31.7784 0.872821 31.1719 0.823373C30.4647 0.882538 30.1007 1.01856 29.5819 1.50866Z" fill="#158BA0"/>
<path d="M16.9014 18.4863C17.2934 18.7896 17.6666 19.0935 18.0385 19.4197C18.1375 19.5049 18.2365 19.5901 18.3385 19.6779C18.5809 19.8868 18.822 20.097 19.0629 20.3076C18.8049 20.9486 18.5075 21.2306 17.9371 21.6052C17.8025 21.6959 17.6678 21.7865 17.529 21.8798C16.1715 22.6353 14.6332 22.721 13.1189 22.4931C12.3327 22.2253 11.625 21.902 10.9575 21.4003C10.7773 20.854 10.7773 20.854 10.9645 20.4676C12.3293 18.452 14.514 17.2381 16.9014 18.4863Z" fill="#C48D5D"/>
<path d="M2.60674 27.4109C3.36465 27.6061 4.07392 27.8833 4.79998 28.1802C4.95045 28.2408 5.10092 28.3014 5.25595 28.3638C5.7341 28.5567 6.2117 28.7511 6.68931 28.9455C7.01312 29.0762 7.33697 29.2069 7.66086 29.3375C10.014 30.2882 10.014 30.2882 10.4404 30.5106C10.5642 30.9384 10.6813 31.3683 10.7934 31.7995C10.9037 32.0487 11.0179 32.2965 11.1465 32.536C10.4093 32.4227 9.85156 32.1597 9.1937 31.7995C8.14618 31.2359 7.08232 30.722 6.00529 30.2229C2.22511 28.463 2.22511 28.463 1.61433 27.7486C2.14389 27.3803 2.14389 27.3803 2.60674 27.4109Z" fill="#39B6CC"/>
<path d="M8.79222 23.1177C9.65606 23.4285 9.65606 23.4285 9.8554 23.828C9.08715 24.7254 8.29686 25.6011 7.49647 26.4696C7.40299 26.571 7.30951 26.6725 7.2132 26.777C6.85854 27.1609 6.50345 27.5425 6.13428 27.9125C5.49887 27.8436 4.94708 27.6309 4.36231 27.3797C4.64865 27.0172 4.94451 26.6621 5.24829 26.3142C5.36524 26.3142 5.48219 26.3142 5.60269 26.3142C5.60269 26.197 5.60269 26.0798 5.60269 25.959C5.89287 25.7008 6.19405 25.455 6.49974 25.2154C7.31861 24.5602 8.07406 23.8816 8.79222 23.1177Z" fill="#C18D5C"/>
<path d="M16.8946 18.5886C17.3075 18.9599 17.3075 18.9599 17.6088 19.2875C17.421 19.2119 17.421 19.2119 17.2294 19.1346C17.06 19.0698 16.8905 19.0049 16.716 18.9381C16.5466 18.8696 16.3772 18.8011 16.2026 18.7306C15.5147 18.5556 15.0793 18.5772 14.3946 18.7633C13.9787 19.1556 13.9787 19.1556 13.6803 19.637C13.5772 19.7487 13.4741 19.8605 13.3678 19.9756C13.0564 20.4785 13.0569 20.8077 13.1446 21.3844C13.4911 21.6823 13.4911 21.6823 13.8589 21.9086C13.8589 22.0815 13.8589 22.2545 13.8589 22.4328C12.6419 22.381 11.8262 21.8553 10.8232 21.2096C11.0962 20.1145 11.6519 19.3344 12.604 18.7053C13.9334 18.0372 15.5384 17.9444 16.8946 18.5886Z" fill="#B17B4F"/>
<path d="M17.5867 19.1791C18.0741 19.5394 18.5616 19.8996 19.0638 20.2708C18.6933 21.001 18.5366 21.1661 17.8752 21.5899C17.7307 21.6847 17.5862 21.7794 17.4374 21.877C17.0328 22.0903 17.0328 22.0903 16.4788 22.0903C16.4788 21.9702 16.4788 21.8501 16.4788 21.7264C16.6616 21.6063 16.8444 21.4862 17.0328 21.3625C17.1675 20.8962 17.1675 20.8962 17.2174 20.4528C17.0346 20.4528 16.8518 20.4528 16.6635 20.4528C16.6635 20.3327 16.6635 20.2126 16.6635 20.0889C16.9681 19.9688 17.2728 19.8487 17.5867 19.725C17.5867 19.5448 17.5867 19.3647 17.5867 19.1791Z" fill="#BE8D65"/>
<path d="M9.37035 30.1386C9.88129 30.2424 9.88129 30.2424 10.4367 30.5075C10.6588 31.1299 10.6588 31.1299 10.7921 31.7984C10.9031 32.048 11.0181 32.2962 11.1475 32.536C10.3654 32.4433 9.95469 32.151 9.37035 31.614C9.48764 31.3097 9.60494 31.0054 9.72578 30.6919C9.60849 30.6919 9.4912 30.6919 9.37035 30.6919C9.37035 30.5093 9.37035 30.3267 9.37035 30.1386Z" fill="#39B6CC"/>
<path d="M16.9029 18.5557C17.3115 18.8935 17.3115 18.8935 17.6097 19.1915C17.4858 19.1456 17.3619 19.0997 17.2342 19.0524C17.0666 18.9934 16.8989 18.9344 16.7262 18.8736C16.5622 18.8146 16.3982 18.7556 16.2292 18.6948C15.341 18.4755 14.4321 18.4489 13.5455 18.7147C13.4871 18.9245 13.4288 19.1343 13.3687 19.3504C12.8187 19.3504 12.4662 19.3228 11.9551 19.1915C13.3087 18.1172 15.2454 17.8232 16.9029 18.5557Z" fill="#A08068"/>
<path d="M35.2745 34.0773C35.5233 34.0773 35.7721 34.0773 36.0285 34.0773C36.0018 34.344 35.9741 34.6107 35.946 34.8773C35.9307 35.0258 35.9154 35.1743 35.8996 35.3273C35.84 35.7469 35.84 35.7469 35.6515 36.3034C35.0295 36.1197 34.4075 35.9361 33.7666 35.7469C34.3321 35.3758 34.3321 35.3758 34.8976 35.3758C34.8976 35.5595 34.8976 35.7432 34.8976 35.9324C35.0842 35.9324 35.2708 35.9324 35.463 35.9324C35.463 35.6263 35.463 35.3202 35.463 35.0048C35.2764 35.0048 35.0898 35.0048 34.8976 35.0048C35.086 34.4483 35.086 34.4483 35.2745 34.0773Z" fill="#39B6CC"/>
<path d="M8.80436 23.1177C9.65761 23.4174 9.65761 23.4174 9.85451 23.8027C9.68123 24.0569 9.68123 24.0569 9.50446 24.3164C9.21567 24.2599 8.92688 24.2034 8.62933 24.1451C8.57158 24.3147 8.51382 24.4842 8.45431 24.6589C8.10426 24.4876 8.10426 24.4876 7.75421 24.1451C8.10076 23.8061 8.44731 23.467 8.80436 23.1177Z" fill="#B48B67"/>
<path d="M12.7634 20.2066C12.7634 20.6692 12.7634 21.1319 12.7634 21.6085C12.2181 21.7838 12.2181 21.7838 11.8319 21.6633C11.4911 21.4333 11.4911 21.4333 11.3548 21.0609C11.3398 20.9524 11.3248 20.844 11.3094 20.7323C12.15 20.2066 12.15 20.2066 12.7634 20.2066Z" fill="#B47B46"/>
<path d="M14.5425 28.7795C14.5425 28.8398 14.5425 28.9001 14.5425 28.9622C13.9932 29.0157 13.9932 29.0157 13.4439 29.0692C13.335 29.0942 13.2262 29.1192 13.114 29.1449C13.0551 29.2655 12.9961 29.3861 12.9354 29.5103C12.3886 29.6245 12.3886 29.6245 11.864 29.693C11.7462 30.2356 11.6283 30.7783 11.5069 31.3374C11.389 31.2168 11.2712 31.0962 11.1497 30.972C11.1636 30.207 11.2089 29.822 11.7301 29.2591C12.6478 28.7042 13.5043 28.7615 14.5425 28.7795Z" fill="#39B6CC"/>
<path d="M11.7118 19.3503C11.8291 19.5914 11.9464 19.8325 12.0673 20.081C11.9793 20.1902 11.8913 20.2995 11.8007 20.412C11.4839 20.8062 11.4839 20.8062 11.5341 21.3596C11.886 21.4801 12.2379 21.6007 12.6004 21.7249C12.6004 21.8454 12.6004 21.966 12.6004 22.0902C11.9052 21.8791 11.3787 21.66 10.8232 21.1769C11.0287 20.4623 11.2418 19.9212 11.7118 19.3503Z" fill="#A17C60"/>
<path d="M6.46275 27.9125C7.29628 28.0606 8.01033 28.3537 8.7852 28.6951C9.24845 28.8752 9.69181 28.9818 10.1787 29.0684C9.89634 29.2941 9.89634 29.2941 9.43548 29.4537C8.92834 29.3023 8.48709 29.1398 8.00718 28.9239C7.87916 28.8702 7.75115 28.8166 7.61925 28.7613C6.67531 28.3533 6.67531 28.3533 6.46275 27.9125Z" fill="#C0A58A"/>
<path d="M21.6492 26.7138C21.7558 26.8833 21.8625 27.0528 21.9723 27.2275C21.8657 27.4535 21.7591 27.6796 21.6492 27.9125C20.8818 27.784 20.8818 27.784 20.5183 27.3987C20.8915 27.1727 21.2647 26.9466 21.6492 26.7138Z" fill="#39B6CC"/>
<path d="M18.901 28.0838C18.8414 28.2533 18.7818 28.4228 18.7204 28.5975C17.767 28.5975 16.8136 28.5975 15.8313 28.5975C15.8313 28.541 15.8313 28.4845 15.8313 28.4263C16.2751 28.3689 16.719 28.3119 17.163 28.255C17.2891 28.2387 17.4153 28.2224 17.5453 28.2055C18.4989 28.0838 18.4989 28.0838 18.901 28.0838Z" fill="#39B6CC"/>
<path d="M9.37035 30.1386C9.74356 30.2517 10.1168 30.3647 10.5013 30.4811C10.5013 30.7637 10.5013 31.0462 10.5013 31.3373C10.2525 31.2808 10.0037 31.2243 9.74733 31.1661C9.74733 30.9966 9.74733 30.827 9.74733 30.6524C9.62292 30.6524 9.49852 30.6524 9.37035 30.6524C9.37035 30.4828 9.37035 30.3133 9.37035 30.1386Z" fill="#39B6CC"/>
<path d="M34.5919 36.3034C35.0878 36.3929 35.548 36.4932 36.028 36.6458C35.9687 36.8154 35.9095 36.9849 35.8485 37.1596C35.3745 37.0465 34.9006 36.9335 34.4124 36.8171C34.4716 36.6475 34.5308 36.478 34.5919 36.3034Z" fill="#E7F4F5"/>
<path d="M4.03944 31.3373C4.91707 31.4653 5.67005 31.896 6.46287 32.3158C6.34862 32.445 6.23437 32.5742 6.11666 32.7073C5.43118 32.3198 4.7457 31.9323 4.03944 31.533C4.03944 31.4684 4.03944 31.4039 4.03944 31.3373Z" fill="#39B6CC"/>
<path d="M25.0652 29.7962C25.4358 29.8453 25.8054 29.9021 26.1731 29.9674C26.1121 30.3065 26.0512 30.6455 25.9884 30.9949C25.8056 31.0514 25.6228 31.1079 25.4345 31.1661C25.4954 30.8836 25.5564 30.601 25.6191 30.3099C25.3754 30.1969 25.1317 30.0839 24.8806 29.9674C24.9415 29.9109 25.0024 29.8544 25.0652 29.7962Z" fill="#39B6CC"/>
<path d="M25.8097 24.4876C25.9296 24.5441 26.0496 24.6006 26.1732 24.6588C25.8781 25.2149 25.3091 25.2927 24.7191 25.515C24.7191 25.3455 24.7191 25.176 24.7191 25.0013C25.0762 24.8185 25.4405 24.6476 25.8097 24.4876Z" fill="#39B6CC"/>
<path d="M22.635 34.7621C23.1628 34.7621 23.6906 34.7621 24.2345 34.7621C23.7002 35.2769 23.1995 35.2067 22.4573 35.2759C22.5159 35.1063 22.5746 34.9368 22.635 34.7621Z" fill="#39B6CC"/>
<path d="M18.2888 19.8641C18.5448 20.0337 18.8007 20.2032 19.0643 20.3779C18.9068 20.7097 18.9068 20.7097 18.6766 21.0628C18.4847 21.1194 18.2927 21.1759 18.095 21.2341C18.095 20.9515 18.095 20.669 18.095 20.3779C18.1589 20.4909 18.2229 20.6039 18.2888 20.7204C18.4168 20.7204 18.5448 20.7204 18.6766 20.7204C18.5486 20.4378 18.4207 20.1553 18.2888 19.8641Z" fill="#A3856D"/>
</svg>
