<svg preserveAspectRatio="none" width="32" height="32" viewBox="0 0 32 32" fill="none" xmlns="http://www.w3.org/2000/svg">
<path d="M18.6667 16V26.5067C18.72 26.9067 18.5867 27.3333 18.28 27.6133C18.1566 27.7369 18.0101 27.835 17.8488 27.9019C17.6875 27.9688 17.5146 28.0033 17.34 28.0033C17.1654 28.0033 16.9925 27.9688 16.8312 27.9019C16.6699 27.835 16.5234 27.7369 16.4 27.6133L13.72 24.9333C13.5746 24.7912 13.464 24.6173 13.3969 24.4253C13.3299 24.2333 13.3081 24.0285 13.3333 23.8267V16H13.2933L5.61333 6.16C5.39681 5.88204 5.29911 5.52968 5.34158 5.17991C5.38406 4.83014 5.56325 4.5114 5.84 4.29333C6.09333 4.10667 6.37333 4 6.66667 4H25.3333C25.6267 4 25.9067 4.10667 26.16 4.29333C26.4368 4.5114 26.6159 4.83014 26.6584 5.17991C26.7009 5.52968 26.6032 5.88204 26.3867 6.16L18.7067 16H18.6667Z" fill="#0CB9DE"/>
</svg>
