<svg xmlns="http://www.w3.org/2000/svg" width="56" height="56" viewBox="0 0 56 56" fill="none">
  <path d="M28 42L30.5025 39.5623L20.7375 29.75H42V26.25H20.7375L30.5025 16.4972L28 14L14 28L28 42Z" fill="#39B6CC"/>
  <path d="M28 3.49999C32.8456 3.49999 37.5825 4.93689 41.6115 7.62898C45.6405 10.3211 48.7807 14.1475 50.635 18.6242C52.4894 23.101 52.9746 28.0272 52.0292 32.7797C51.0839 37.5322 48.7505 41.8977 45.3241 45.3241C41.8977 48.7505 37.5322 51.0839 32.7797 52.0292C28.0272 52.9746 23.101 52.4894 18.6242 50.635C14.1475 48.7807 10.3211 45.6405 7.62898 41.6115C4.93689 37.5825 3.49999 32.8456 3.49999 28C3.5074 21.5045 6.09102 15.2771 10.6841 10.6841C15.2771 6.09102 21.5045 3.5074 28 3.49999ZM28 49C32.1534 49 36.2135 47.7684 39.667 45.4609C43.1204 43.1533 45.812 39.8736 47.4015 36.0363C48.9909 32.1991 49.4068 27.9767 48.5965 23.9031C47.7862 19.8295 45.7861 16.0877 42.8492 13.1507C39.9123 10.2138 36.1705 8.21379 32.0969 7.4035C28.0233 6.59321 23.8009 7.00908 19.9636 8.59852C16.1264 10.188 12.8466 12.8796 10.5391 16.333C8.23162 19.7864 6.99999 23.8466 6.99999 28C7.00647 33.5675 9.22105 38.9052 13.1579 42.8421C17.0948 46.7789 22.4324 48.9935 28 49Z" fill="#39B6CC"/>
</svg>